<svg xmlns="http://www.w3.org/2000/svg" viewBox="0 0 1024 1024" width="1024" height="1024">
  <defs>
    <filter id="softGlow" x="-50%" y="-50%" width="200%" height="200%">
      <feGaussianBlur stdDeviation="18" result="blur1"/>
      <feColorMatrix in="blur1" type="matrix"
        values="1 0 0 0 0
                0 1 0 0 0
                0 0 1 0 0
                0 0 0 0.42 0" result="glow"/>
      <feMerge>
        <feMergeNode in="glow"/>
        <feMergeNode in="SourceGraphic"/>
      </feMerge>
    </filter>
  </defs>
  <path d="M 512.0 688.5 L 427.0 688.5 L 425.5 687.0 L 426.5 622.0 L 433.0 615.5 L 437.0 614.5 L 515.0 614.5 L 544.0 609.5 L 562.0 603.5 L 579.0 594.5 L 590.0 586.5 L 603.5 573.0 L 615.5 556.0 L 623.5 539.0 L 628.5 522.0 L 631.5 501.0 L 631.5 483.0 L 628.5 462.0 L 622.5 443.0 L 616.5 431.0 L 607.5 418.0 L 586.0 397.5 L 561.0 383.5 L 540.0 376.5 L 511.0 372.5 L 395.0 372.5 L 394.5 688.0 L 323.0 687.5 L 317.5 682.0 L 317.5 317.0 L 322.0 312.5 L 327.0 310.5 L 502.0 310.5 L 535.0 312.5 L 570.0 319.5 L 611.0 336.5 L 637.0 353.5 L 666.5 382.0 L 686.5 411.0 L 699.5 440.0 L 705.5 461.0 L 709.5 487.0 L 709.5 526.0 L 701.5 566.0 L 695.5 582.0 L 684.5 603.0 L 671.5 621.0 L 654.0 639.5 L 628.0 658.5 L 609.0 668.5 L 569.0 681.5 L 541.0 686.5 Z" fill="#ffffff" filter="url(#softGlow)"/>
</svg>